<svg width="63" height="51" viewBox="0 0 63 51" fill="none" xmlns="http://www.w3.org/2000/svg">
<path d="M62.2709 6.77409C59.9625 7.79278 57.5201 8.46391 55.0209 8.76627C57.6474 7.20427 59.6226 4.72275 60.576 1.78713C58.0928 3.26185 55.3806 4.29659 52.5555 4.84701C51.3659 3.58078 49.9352 2.57346 48.3503 1.88628C46.7654 1.19909 45.0595 0.846397 43.3363 0.849631C36.3593 0.849631 30.7132 6.50065 30.7132 13.4668C30.7082 14.4357 30.8176 15.4018 31.0388 16.3444C26.0359 16.1062 21.1369 14.81 16.6555 12.5387C12.174 10.2675 8.20868 7.07117 5.01319 3.15431C3.89213 5.07373 3.29926 7.26373 3.29652 9.49544C3.29652 13.8704 5.54396 17.7376 8.93755 20.0032C6.92694 19.9548 4.95754 19.4143 3.19652 18.4277V18.584C3.19652 24.7037 7.5555 29.7949 13.3247 30.9537C12.2398 31.2474 11.1219 31.3963 9.99909 31.3964C9.20239 31.3978 8.40751 31.3193 7.62601 31.162C9.22986 36.175 13.8978 39.8209 19.4273 39.925C14.9342 43.4418 9.41783 45.3426 3.74524 45.3287C2.73834 45.3271 1.73238 45.2663 0.732422 45.1464C6.50316 48.8888 13.2112 50.8684 20.0581 50.8495C43.3093 50.8495 56.0119 31.6178 56.0119 14.9381C56.0119 14.3913 55.9978 13.8444 55.9722 13.3105C58.4377 11.5294 60.5706 9.3159 62.2709 6.77409Z" fill="#0D161A"/>
</svg>
