<svg width="51" height="51" viewBox="0 0 51 51" fill="none" xmlns="http://www.w3.org/2000/svg">
<path d="M39.0824 9.49961C38.4891 9.49961 37.9091 9.67556 37.4157 10.0052C36.9224 10.3348 36.5378 10.8034 36.3108 11.3516C36.0837 11.8997 36.0243 12.5029 36.1401 13.0849C36.2558 13.6668 36.5415 14.2014 36.9611 14.6209C37.3807 15.0405 37.9152 15.3262 38.4972 15.442C39.0791 15.5577 39.6823 15.4983 40.2305 15.2712C40.7787 15.0442 41.2472 14.6597 41.5768 14.1663C41.9065 13.673 42.0824 13.093 42.0824 12.4996C42.0824 11.704 41.7664 10.9409 41.2037 10.3783C40.6411 9.81568 39.8781 9.49961 39.0824 9.49961ZM50.5824 15.5496C50.5338 13.4754 50.1453 11.4231 49.4324 9.47461C48.7967 7.80744 47.8074 6.29781 46.5324 5.04961C45.2945 3.76817 43.7813 2.78505 42.1074 2.17461C40.1641 1.44001 38.1095 1.04263 36.0324 0.999609C33.3824 0.849609 32.5324 0.849609 25.7324 0.849609C18.9324 0.849609 18.0824 0.849609 15.4324 0.999609C13.3553 1.04263 11.3008 1.44001 9.35742 2.17461C7.68661 2.79123 6.17476 3.77351 4.93242 5.04961C3.65099 6.28755 2.66786 7.80071 2.05742 9.47461C1.32282 11.418 0.925447 13.4725 0.882422 15.5496C0.732422 18.1996 0.732422 19.0496 0.732422 25.8496C0.732422 32.6496 0.732422 33.4996 0.882422 36.1496C0.925447 38.2267 1.32282 40.2812 2.05742 42.2246C2.66786 43.8985 3.65099 45.4117 4.93242 46.6496C6.17476 47.9257 7.68661 48.908 9.35742 49.5246C11.3008 50.2592 13.3553 50.6566 15.4324 50.6996C18.0824 50.8496 18.9324 50.8496 25.7324 50.8496C32.5324 50.8496 33.3824 50.8496 36.0324 50.6996C38.1095 50.6566 40.1641 50.2592 42.1074 49.5246C43.7813 48.9142 45.2945 47.931 46.5324 46.6496C47.813 45.4061 48.8033 43.8951 49.4324 42.2246C50.1453 40.2761 50.5338 38.2239 50.5824 36.1496C50.5824 33.4996 50.7324 32.6496 50.7324 25.8496C50.7324 19.0496 50.7324 18.1996 50.5824 15.5496ZM46.0824 35.8496C46.0642 37.4365 45.7768 39.0089 45.2324 40.4996C44.8333 41.5876 44.1921 42.5707 43.3574 43.3746C42.5465 44.2009 41.5655 44.8407 40.4824 45.2496C38.9917 45.794 37.4194 46.0814 35.8324 46.0996C33.3324 46.2246 32.4074 46.2496 25.8324 46.2496C19.2574 46.2496 18.3324 46.2496 15.8324 46.0996C14.1846 46.1305 12.5439 45.8767 10.9824 45.3496C9.94688 44.9198 9.01081 44.2816 8.23242 43.4746C7.40264 42.6715 6.76953 41.6876 6.38242 40.5996C5.77206 39.0875 5.43353 37.4795 5.38242 35.8496C5.38242 33.3496 5.23242 32.4246 5.23242 25.8496C5.23242 19.2746 5.23242 18.3496 5.38242 15.8496C5.39363 14.2272 5.6898 12.6195 6.25742 11.0996C6.69754 10.0444 7.37308 9.10375 8.23242 8.34961C8.99196 7.49003 9.93064 6.80735 10.9824 6.34961C12.5063 5.79972 14.1124 5.51231 15.7324 5.49961C18.2324 5.49961 19.1574 5.34961 25.7324 5.34961C32.3074 5.34961 33.2324 5.34961 35.7324 5.49961C37.3194 5.51781 38.8917 5.80523 40.3824 6.34961C41.5185 6.77124 42.5382 7.45673 43.3574 8.34961C44.1767 9.11756 44.8168 10.0564 45.2324 11.0996C45.7881 12.6219 46.0756 14.2291 46.0824 15.8496C46.2074 18.3496 46.2324 19.2746 46.2324 25.8496C46.2324 32.4246 46.2074 33.3496 46.0824 35.8496ZM25.7324 13.0246C23.1969 13.0296 20.7198 13.7859 18.6141 15.1982C16.5083 16.6104 14.8684 18.6151 13.9015 20.959C12.9346 23.3029 12.6842 25.8808 13.1819 28.3669C13.6796 30.8531 14.903 33.1359 16.6976 34.9271C18.4922 36.7182 20.7774 37.9371 23.2646 38.43C25.7517 38.9228 28.3291 38.6674 30.6711 37.696C33.0131 36.7245 35.0146 35.0807 36.4227 32.9722C37.8309 30.8637 38.5824 28.3851 38.5824 25.8496C38.5857 24.1624 38.2554 22.4911 37.6105 20.932C36.9656 19.3729 36.0188 17.9566 34.8246 16.7647C33.6304 15.5728 32.2123 14.6288 30.6519 13.9869C29.0915 13.3451 27.4197 13.018 25.7324 13.0246ZM25.7324 34.1746C24.0859 34.1746 22.4763 33.6864 21.1073 32.7716C19.7383 31.8568 18.6712 30.5566 18.0411 29.0354C17.411 27.5143 17.2462 25.8404 17.5674 24.2255C17.8886 22.6106 18.6815 21.1272 19.8458 19.9629C21.01 18.7987 22.4934 18.0058 24.1083 17.6846C25.7232 17.3633 27.3971 17.5282 28.9183 18.1583C30.4395 18.7884 31.7396 19.8554 32.6544 21.2245C33.5692 22.5935 34.0574 24.2031 34.0574 25.8496C34.0574 26.9429 33.8421 28.0254 33.4237 29.0354C33.0054 30.0455 32.3921 30.9632 31.6191 31.7363C30.846 32.5093 29.9283 33.1225 28.9183 33.5409C27.9082 33.9593 26.8257 34.1746 25.7324 34.1746Z" fill="#0D161A"/>
</svg>
