<svg width="81" height="81" viewBox="0 0 81 81" fill="none" xmlns="http://www.w3.org/2000/svg">
<mask id="mask0_1_57" style="mask-type:alpha" maskUnits="userSpaceOnUse" x="0" y="0" width="81" height="81">
<rect x="1.73242" y="1.84961" width="78.0044" height="78" rx="9" fill="white" stroke="#0D161A" stroke-width="2"/>
</mask>
<g mask="url(#mask0_1_57)">
<path d="M40.7351 98.7515C71.6079 98.7515 96.6353 73.7241 96.6353 42.8513C96.6353 11.9785 71.6079 -13.0488 40.7351 -13.0488C9.86231 -13.0488 -15.165 11.9785 -15.165 42.8513C-15.165 73.7241 9.86231 98.7515 40.7351 98.7515Z" fill="#4353FF"/>
<path d="M53.0733 33.4637L48.5838 47.6131C48.5838 46.5295 45.4876 23.0605 45.4876 23.0605C38.3665 23.0605 34.5891 28.1073 32.6076 33.4637L27.1274 47.6441C27.1274 46.6224 26.3533 33.5875 26.3533 33.5875C26.089 30.7657 24.799 28.1389 22.7277 26.2045C20.6563 24.2701 17.9475 23.1625 15.1143 23.0915L20.935 58.6355C28.3658 58.6355 32.3909 53.5887 34.4653 48.2324L39.1095 36.1573C39.1095 36.6527 42.2057 58.6355 42.2057 58.6355C45.2443 58.6316 48.2026 57.6602 50.652 55.8621C53.1014 54.064 54.9146 51.5326 55.8288 48.6349L66.3558 23.0605C58.925 23.0605 55.0238 28.1073 53.0423 33.4637H53.0733Z" fill="white"/>
</g>
</svg>
