<svg width="46" height="46" viewBox="0 0 46 46" fill="none" xmlns="http://www.w3.org/2000/svg">
<path d="M3.54492 0.849609H42.9199C43.6658 0.849609 44.3812 1.14593 44.9087 1.67337C45.4361 2.20082 45.7324 2.91619 45.7324 3.66211V43.0371C45.7324 43.783 45.4361 44.4984 44.9087 45.0258C44.3812 45.5533 43.6658 45.8496 42.9199 45.8496H3.54492C2.799 45.8496 2.08363 45.5533 1.55618 45.0258C1.02874 44.4984 0.732422 43.783 0.732422 43.0371V3.66211C0.732422 2.91619 1.02874 2.20082 1.55618 1.67337C2.08363 1.14593 2.799 0.849609 3.54492 0.849609Z" fill="#05A081"/>
<path d="M19.0137 30.3809H24.446V25.1046H26.0871C26.664 25.1046 27.2353 24.991 27.7683 24.7702C28.3013 24.5494 28.7856 24.2258 29.1935 23.8179C29.6015 23.41 29.9251 22.9257 30.1458 22.3927C30.3666 21.8597 30.4802 21.2884 30.4802 20.7115C30.4802 20.1346 30.3666 19.5633 30.1458 19.0303C29.9251 18.4973 29.6015 18.013 29.1935 17.6051C28.7856 17.1971 28.3013 16.8735 27.7683 16.6528C27.2353 16.432 26.664 16.3184 26.0871 16.3184H19.0137V30.3809ZM27.2585 33.1934H16.2012V13.5059H26.0871C27.8967 13.5055 29.6401 14.186 30.971 15.4122C32.3018 16.6383 33.1225 18.3203 33.2701 20.1238C33.4177 21.9274 32.8813 23.7204 31.7675 25.1466C30.6537 26.5728 29.0441 27.5277 27.2585 27.8215V33.1934Z" fill="white"/>
</svg>
