<svg width="51" height="51" viewBox="0 0 51 51" fill="none" xmlns="http://www.w3.org/2000/svg">
<path d="M46.7335 0.849609H5.00474C2.72461 0.849609 0.732422 2.49023 0.732422 4.74358V46.565C0.732422 48.8306 2.72461 50.8496 5.00474 50.8496H46.7212C49.0136 50.8496 50.7323 48.8172 50.7323 46.565V4.74358C50.7457 2.49023 49.0136 0.849609 46.7335 0.849609ZM16.2313 42.5271H9.06835V20.2559H16.2313V42.5271ZM12.8976 16.8697H12.8462C10.5538 16.8697 9.06946 15.1632 9.06946 13.0271C9.06946 10.8518 10.5929 9.18555 12.9366 9.18555C15.2804 9.18555 16.7145 10.8396 16.7659 13.0271C16.7648 15.1632 15.2804 16.8697 12.8976 16.8697ZM42.4098 42.5271H35.2469V30.3496C35.2469 27.4322 34.2045 25.4389 31.613 25.4389C29.633 25.4389 28.4612 26.7782 27.94 28.0829C27.7447 28.5516 27.6922 29.19 27.6922 29.8418V42.5271H20.5293V20.2559H27.6922V23.3552C28.7346 21.8708 30.363 19.7347 34.152 19.7347C38.854 19.7347 42.4109 22.834 42.4109 29.5159L42.4098 42.5271Z" fill="#0D161A"/>
</svg>
