<svg width="13" height="13" viewBox="0 0 13 13" fill="none" xmlns="http://www.w3.org/2000/svg">
<path d="M12.6524 6.46961C12.6048 6.34686 12.5335 6.23471 12.4424 6.13961L7.44242 1.13961C7.34918 1.04637 7.23849 0.972413 7.11667 0.921952C6.99485 0.871492 6.86428 0.84552 6.73242 0.84552C6.46612 0.84552 6.21073 0.951308 6.02242 1.13961C5.92918 1.23285 5.85522 1.34354 5.80476 1.46536C5.7543 1.58718 5.72833 1.71775 5.72833 1.84961C5.72833 2.11591 5.83412 2.37131 6.02242 2.55961L9.32242 5.84961H1.73242C1.46721 5.84961 1.21285 5.95497 1.02532 6.1425C0.837779 6.33004 0.732422 6.58439 0.732422 6.84961C0.732422 7.11483 0.837779 7.36918 1.02532 7.55672C1.21285 7.74425 1.46721 7.84961 1.73242 7.84961H9.32242L6.02242 11.1396C5.92869 11.2326 5.8543 11.3432 5.80353 11.465C5.75276 11.5869 5.72662 11.7176 5.72662 11.8496C5.72662 11.9816 5.75276 12.1123 5.80353 12.2342C5.8543 12.356 5.92869 12.4666 6.02242 12.5596C6.11538 12.6533 6.22599 12.7277 6.34784 12.7785C6.4697 12.8293 6.60041 12.8554 6.73242 12.8554C6.86443 12.8554 6.99514 12.8293 7.117 12.7785C7.23886 12.7277 7.34946 12.6533 7.44242 12.5596L12.4424 7.55961C12.5335 7.46451 12.6048 7.35236 12.6524 7.22961C12.7524 6.98615 12.7524 6.71307 12.6524 6.46961Z" fill="#0D161A"/>
</svg>
