<svg width="46" height="36" viewBox="0 0 46 36" fill="none" xmlns="http://www.w3.org/2000/svg">
<path d="M0.732422 35.9284L22.8691 1.03161L34.7344 8.62325L17.4133 35.9284H0.732422Z" fill="#FBBC04"/>
<path d="M22.4011 0.849609H36.0274V35.9284H22.4011V0.849609Z" fill="#1A73E8"/>
<path d="M8.28081 14.9988C12.011 14.9988 15.0349 11.962 15.0349 8.21578C15.0349 4.46961 12.011 1.43275 8.28081 1.43275C4.55065 1.43275 1.52675 4.46961 1.52675 8.21578C1.52675 11.962 4.55065 14.9988 8.28081 14.9988Z" fill="#EA4335"/>
<path d="M45.7324 26.1816C45.7324 28.7666 44.7099 31.2457 42.8899 33.0736C41.0698 34.9015 38.6013 35.9284 36.0274 35.9284V16.4358C38.6011 16.4358 41.0695 17.4626 42.8896 19.2903C44.7096 21.1179 45.7322 23.5968 45.7324 26.1816Z" fill="#34A853"/>
<path d="M36.0274 16.4358V35.9284C33.4697 35.9036 31.0252 34.8659 29.2254 33.0408C27.4255 31.2157 26.4158 28.7508 26.4158 26.1821C26.4158 23.6134 27.4255 21.1485 29.2254 19.3234C31.0252 17.4983 33.4697 16.4606 36.0274 16.4358Z" fill="#0D652D"/>
<path d="M43.4964 8.93474C43.4962 10.9241 42.7092 12.8319 41.3085 14.2386C39.9078 15.6452 38.0082 16.4356 36.0274 16.4358V1.43275C38.0084 1.43299 39.9081 2.22348 41.3088 3.63035C42.7095 5.03722 43.4964 6.94525 43.4964 8.93474Z" fill="#1A73E8"/>
<path d="M36.0274 1.43275V16.4358C34.0605 16.4141 32.1816 15.6142 30.7984 14.2098C29.4153 12.8053 28.6395 10.9097 28.6395 8.93429C28.6395 6.95891 29.4153 5.06325 30.7984 3.6588C32.1816 2.25434 34.0605 1.45445 36.0274 1.43275Z" fill="#174EA6"/>
</svg>
